<?xml version="1.0" encoding="UTF-8" standalone="no"?>
<svg
   xmlns:dc="http://purl.org/dc/elements/1.1/"
   xmlns:cc="http://creativecommons.org/ns#"
   xmlns:rdf="http://www.w3.org/1999/02/22-rdf-syntax-ns#"
   xmlns:svg="http://www.w3.org/2000/svg"
   xmlns="http://www.w3.org/2000/svg"
   id="svg12"
   xml:space="preserve"
   enable-background="new 0 0 48 48"
   viewBox="0 0 48 48"
   y="0px"
   x="0px"
   version="1.1"><metadata
   id="metadata18"><rdf:RDF><cc:Work
       rdf:about=""><dc:format>image/svg+xml</dc:format><dc:type
         rdf:resource="http://purl.org/dc/dcmitype/StillImage" /></cc:Work></rdf:RDF></metadata><defs
   id="defs16" />
<path
   id="path2"
   d="M24,5C13.5,5,5,13.5,5,24s8.5,19,19,19s19-8.5,19-19S34.5,5,24,5L24,5z"
   fill="#FF3D00" />
<path
   id="path4"
   d="M24,9C15.7,9,9,15.7,9,24s6.7,15,15,15s15-6.7,15-15S32.3,9,24,9z M24,35c-6.1,0-11-4.9-11-11s4.9-11,11-11  s11,4.9,11,11S30.1,35,24,35z M24,17c-3.9,0-7,3.1-7,7s3.1,7,7,7s7-3.1,7-7S27.9,17,24,17z M24,27c-1.7,0-3-1.3-3-3s1.3-3,3-3  s3,1.3,3,3S25.7,27,24,27z"
   fill="#FFFFFF" />
<path
   id="path6"
   d="M43,9c0,0-0.6,2.3-2.2,3.8c-1.6,1.6-8,2.4-8,2.4s0.8-6.5,2.4-8C36.7,5.6,39,5,39,5v4H43z"
   fill="#1976D2" />
<path
   id="path8"
   d="M42.7,5.3c-0.4-0.4-1-0.4-1.4,0l-18,18c-0.4,0.4-0.4,1,0,1.4c0.2,0.2,0.5,0.3,0.7,0.3s0.5-0.1,0.7-0.3l18-18  C43.1,6.3,43.1,5.7,42.7,5.3z"
   fill="#37474F" />
<rect
   id="rect10"
   height="8.3"
   width="2"
   fill="#42A5F5"
   transform="matrix(0.7071 0.7071 -0.7071 0.7071 18.7547 -22.6775)"
   y="7.2"
   x="35.8" />
</svg>