<?xml version="1.0" standalone="no"?><!DOCTYPE svg PUBLIC "-//W3C//DTD SVG 1.1//EN" "http://www.w3.org/Graphics/SVG/1.1/DTD/svg11.dtd"><svg class="icon" height="512" viewBox="0 0 1024 1024" version="1.1" xmlns="http://www.w3.org/2000/svg"><path d="M634.88 221.696v123.392l-135.68 135.68c-10.24 10.24-10.24 26.112 0 36.352s26.112 10.24 36.352 0l126.976-126.976h141.824l206.848-206.848-152.064-16.896-16.896-152.064-136.704 136.704-70.656 70.656zM487.424 388.096l46.08-46.08c-14.848-3.584-29.696-5.12-45.568-5.12-110.08 0-199.68 89.6-199.68 199.68s89.6 199.68 199.68 199.68 199.68-89.6 199.68-199.68c0-17.92-2.56-35.328-7.168-52.224l-44.544 44.544v7.68c0 81.92-66.56 148.48-148.48 148.48s-148.48-66.56-148.48-148.48c0.512-81.408 67.072-147.968 148.48-148.48zM891.904 413.696c11.776 38.4 17.92 79.36 17.92 121.856 0 232.96-189.44 422.4-422.4 422.4s-422.4-189.44-422.4-422.4 189.44-422.4 422.4-422.4c39.936 0 78.336 5.632 114.688 15.872l40.96-40.96c-48.64-16.896-101.376-26.112-155.648-26.112-261.632 0-473.6 211.968-473.6 473.6s211.968 473.6 473.6 473.6 473.6-211.968 473.6-473.6c0-56.832-10.24-111.616-28.672-162.304l-40.448 40.448z" /></svg>